<mxfile host="app.diagrams.net" modified="2023-05-29T08:06:33.400Z" agent="Mozilla/5.0 (Windows NT 10.0; Win64; x64) AppleWebKit/537.36 (KHTML, like Gecko) Chrome/112.0.5615.138 Safari/537.36" etag="yznZVQpH2QavOIWScgMJ" version="21.3.3" type="device" pages="2">
  <diagram name="Page-1" id="PcWF-3kdSRRLcoGT2Ai3">
    <mxGraphModel dx="1050" dy="548" grid="1" gridSize="10" guides="1" tooltips="1" connect="1" arrows="1" fold="1" page="1" pageScale="1" pageWidth="850" pageHeight="1100" math="0" shadow="0">
      <root>
        <mxCell id="0" />
        <mxCell id="1" parent="0" />
        <mxCell id="fPCita2zMb0Mo4EPPnCY-3" value="" style="edgeStyle=orthogonalEdgeStyle;rounded=0;orthogonalLoop=1;jettySize=auto;html=1;" parent="1" source="fPCita2zMb0Mo4EPPnCY-1" target="fPCita2zMb0Mo4EPPnCY-2" edge="1">
          <mxGeometry relative="1" as="geometry" />
        </mxCell>
        <mxCell id="fPCita2zMb0Mo4EPPnCY-1" value="&lt;font face=&quot;Times New Roman&quot;&gt;&lt;span style=&quot;font-size: 14px;&quot;&gt;Попередня обробка зображення&lt;/span&gt;&lt;/font&gt;" style="rounded=0;whiteSpace=wrap;html=1;fillColor=#f5f5f5;fontColor=#333333;strokeColor=#666666;" parent="1" vertex="1">
          <mxGeometry x="240" y="80" width="160" height="70" as="geometry" />
        </mxCell>
        <mxCell id="fPCita2zMb0Mo4EPPnCY-5" value="" style="edgeStyle=orthogonalEdgeStyle;rounded=0;orthogonalLoop=1;jettySize=auto;html=1;" parent="1" source="fPCita2zMb0Mo4EPPnCY-2" target="fPCita2zMb0Mo4EPPnCY-4" edge="1">
          <mxGeometry relative="1" as="geometry" />
        </mxCell>
        <mxCell id="fPCita2zMb0Mo4EPPnCY-2" value="&lt;font face=&quot;Times New Roman&quot;&gt;&lt;span style=&quot;font-size: 14px;&quot;&gt;Створення об&#39;єкта WAV та його налаштування&amp;nbsp;&lt;/span&gt;&lt;/font&gt;" style="rounded=0;whiteSpace=wrap;html=1;fillColor=#f5f5f5;fontColor=#333333;strokeColor=#666666;" parent="1" vertex="1">
          <mxGeometry x="240" y="190" width="160" height="70" as="geometry" />
        </mxCell>
        <mxCell id="fPCita2zMb0Mo4EPPnCY-7" value="" style="edgeStyle=orthogonalEdgeStyle;rounded=0;orthogonalLoop=1;jettySize=auto;html=1;" parent="1" source="fPCita2zMb0Mo4EPPnCY-4" target="fPCita2zMb0Mo4EPPnCY-6" edge="1">
          <mxGeometry relative="1" as="geometry" />
        </mxCell>
        <mxCell id="fPCita2zMb0Mo4EPPnCY-4" value="&lt;font face=&quot;Times New Roman&quot;&gt;&lt;span style=&quot;font-size: 14px;&quot;&gt;Перенесення значень з масиву кольорів пікселів зображення до масиву даних об&#39;єкта WAV&lt;/span&gt;&lt;/font&gt;" style="rounded=0;whiteSpace=wrap;html=1;fillColor=#f5f5f5;fontColor=#333333;strokeColor=#666666;" parent="1" vertex="1">
          <mxGeometry x="215" y="290" width="210" height="120" as="geometry" />
        </mxCell>
        <mxCell id="fPCita2zMb0Mo4EPPnCY-6" value="&lt;font face=&quot;Times New Roman&quot;&gt;&lt;span style=&quot;font-size: 14px;&quot;&gt;Збереження файлу WAV&lt;/span&gt;&lt;/font&gt;" style="rounded=0;whiteSpace=wrap;html=1;fillColor=#f5f5f5;fontColor=#333333;strokeColor=#666666;" parent="1" vertex="1">
          <mxGeometry x="237.5" y="450" width="165" height="50" as="geometry" />
        </mxCell>
      </root>
    </mxGraphModel>
  </diagram>
  <diagram id="Tx04sctDDNQhaLJZBh8R" name="Page-2">
    <mxGraphModel dx="724" dy="378" grid="1" gridSize="10" guides="1" tooltips="1" connect="1" arrows="1" fold="1" page="1" pageScale="1" pageWidth="850" pageHeight="1100" math="0" shadow="0">
      <root>
        <mxCell id="0" />
        <mxCell id="1" parent="0" />
        <mxCell id="u_lUMOvrA4SmjuG2XQMp-7" value="" style="edgeStyle=orthogonalEdgeStyle;rounded=0;orthogonalLoop=1;jettySize=auto;html=1;" edge="1" parent="1" source="u_lUMOvrA4SmjuG2XQMp-1" target="u_lUMOvrA4SmjuG2XQMp-3">
          <mxGeometry relative="1" as="geometry" />
        </mxCell>
        <mxCell id="u_lUMOvrA4SmjuG2XQMp-1" value="&lt;font face=&quot;Times New Roman&quot;&gt;&lt;span style=&quot;font-size: 14px;&quot;&gt;Первинне зчитування частот WAV файлу&lt;/span&gt;&lt;/font&gt;" style="rounded=0;whiteSpace=wrap;html=1;fillColor=#f5f5f5;fontColor=#333333;strokeColor=#666666;" vertex="1" parent="1">
          <mxGeometry x="240" y="80" width="160" height="70" as="geometry" />
        </mxCell>
        <mxCell id="u_lUMOvrA4SmjuG2XQMp-8" value="" style="edgeStyle=orthogonalEdgeStyle;rounded=0;orthogonalLoop=1;jettySize=auto;html=1;" edge="1" parent="1" source="u_lUMOvrA4SmjuG2XQMp-3" target="u_lUMOvrA4SmjuG2XQMp-5">
          <mxGeometry relative="1" as="geometry" />
        </mxCell>
        <mxCell id="u_lUMOvrA4SmjuG2XQMp-3" value="&lt;font face=&quot;Times New Roman&quot;&gt;&lt;span style=&quot;font-size: 14px;&quot;&gt;Занесення у зміні перших дво елементів масиву, що відповідають ширині та висоті зображення&lt;/span&gt;&lt;/font&gt;" style="rounded=0;whiteSpace=wrap;html=1;fillColor=#f5f5f5;fontColor=#333333;strokeColor=#666666;" vertex="1" parent="1">
          <mxGeometry x="220" y="170" width="200" height="90" as="geometry" />
        </mxCell>
        <mxCell id="u_lUMOvrA4SmjuG2XQMp-9" value="" style="edgeStyle=orthogonalEdgeStyle;rounded=0;orthogonalLoop=1;jettySize=auto;html=1;" edge="1" parent="1" source="u_lUMOvrA4SmjuG2XQMp-5" target="u_lUMOvrA4SmjuG2XQMp-6">
          <mxGeometry relative="1" as="geometry" />
        </mxCell>
        <mxCell id="u_lUMOvrA4SmjuG2XQMp-5" value="&lt;font face=&quot;Times New Roman&quot;&gt;&lt;span style=&quot;font-size: 14px;&quot;&gt;Створення об&#39;єкта класу з зображенням та втавка отриманого масиву з кольорами пікселів&lt;/span&gt;&lt;/font&gt;" style="rounded=0;whiteSpace=wrap;html=1;fillColor=#f5f5f5;fontColor=#333333;strokeColor=#666666;" vertex="1" parent="1">
          <mxGeometry x="220" y="290" width="200" height="90" as="geometry" />
        </mxCell>
        <mxCell id="u_lUMOvrA4SmjuG2XQMp-6" value="&lt;font face=&quot;Times New Roman&quot;&gt;&lt;span style=&quot;font-size: 14px;&quot;&gt;Збереження зображення&lt;/span&gt;&lt;/font&gt;" style="rounded=0;whiteSpace=wrap;html=1;fillColor=#f5f5f5;fontColor=#333333;strokeColor=#666666;" vertex="1" parent="1">
          <mxGeometry x="220" y="410" width="200" height="40" as="geometry" />
        </mxCell>
      </root>
    </mxGraphModel>
  </diagram>
</mxfile>
